<svg xmlns="http://www.w3.org/2000/svg" version="1.1" xmlns:xlink="http://www.w3.org/1999/xlink" xmlns:svgjs="http://svgjs.com/svgjs" width="1440" height="560" preserveAspectRatio="none" viewBox="0 0 1440 560"><g mask="url(&quot;#SvgjsMask1043&quot;)" fill="none"><rect width="1440" height="560" x="0" y="0" fill="rgba(255, 243, 133, 1)"></rect><path d="M0,606.189C111.915,585.295,141.454,430.579,239.156,372.134C342.215,310.485,515.072,366.704,574.652,262.435C632.59,161.04,521.231,42.352,492.238,-70.773C466.975,-169.343,484.18,-284.967,415.189,-359.764C346.581,-434.146,228.463,-420.617,134.623,-458.484C27.269,-501.804,-61.683,-618.557,-175.64,-598.176C-288.842,-577.93,-364.404,-463.079,-415.561,-360.086C-460.626,-269.359,-414.616,-161.181,-441.249,-63.442C-473.619,55.35,-617.101,148.624,-586.692,267.933C-557.341,383.09,-407.321,414.248,-304.368,473.606C-206.516,530.023,-111.033,626.918,0,606.189" fill="#ffed47"></path><path d="M1440 1102.435C1545.399 1106.984 1656.342 1091.3490000000002 1741.167 1028.625 1823.959 967.404 1847.094 859.0260000000001 1893.488 767.101 1942.038 670.905 2037.746 582.884 2019.751 476.644 2001.75 370.369 1876.5230000000001 324.36400000000003 1804.8609999999999 243.846 1734.445 164.728 1702.605 41.303999999999974 1602.223 7.518000000000029 1501.563-26.361999999999966 1393.403 28.381999999999948 1296.976 72.90300000000002 1210.874 112.65699999999998 1141.375 175.769 1080.434 248.43400000000003 1020.3340000000001 320.097 974.249 399.51800000000003 947.819 489.235 917.984 590.511 879.008 700.2470000000001 918.487 798.167 958.328 896.9839999999999 1063.061 949.6379999999999 1155.089 1003.3299999999999 1243.7350000000001 1055.049 1337.465 1098.01 1440 1102.435" fill="#fff9c3"></path></g><defs><mask id="SvgjsMask1043"><rect width="1440" height="560" fill="#ffffff"></rect></mask></defs></svg>